<?xml version="1.0" standalone="no"?>
<!DOCTYPE svg PUBLIC "-//W3C//DTD SVG 20010904//EN"
 "http://www.w3.org/TR/2001/REC-SVG-20010904/DTD/svg10.dtd">
<svg version="1.0" xmlns="http://www.w3.org/2000/svg"
 width="450.000000pt" height="622.000000pt" viewBox="0 0 450.000000 622.000000"
 preserveAspectRatio="xMidYMid meet">
<metadata>
Created by potrace 1.15, written by Peter Selinger 2001-2017
</metadata>
<g transform="translate(0.000000,622.000000) scale(0.100000,-0.100000)"
fill="#000000" stroke="none">
<path d="M0 3110 l0 -3110 2250 0 2250 0 0 3110 0 3110 -2250 0 -2250 0 0
-3110z m2685 2825 c448 -39 880 -144 1085 -262 91 -53 198 -162 242 -248 102
-197 167 -520 198 -975 16 -244 32 -708 25 -731 -6 -18 -12 -20 -43 -14 -21 4
-75 22 -122 40 -47 18 -100 36 -119 40 -23 5 -56 30 -110 84 -130 131 -261
182 -476 184 -175 2 -242 -16 -401 -107 -142 -82 -197 -123 -219 -166 -14 -27
-13 -30 11 -60 14 -17 46 -42 70 -56 l43 -26 474 11 c260 6 488 16 507 21 50
14 118 12 260 -10 69 -10 127 -19 129 -20 2 0 0 -96 -4 -212 -7 -222 -18 -297
-58 -377 -39 -80 -239 -265 -332 -307 -50 -23 -175 -47 -310 -59 -41 -4 -135
0 -224 9 -195 20 -191 20 -191 -4 0 -42 65 -63 269 -85 73 -7 136 -16 139 -20
14 -14 -70 -147 -160 -253 -97 -113 -219 -189 -383 -236 -210 -61 -266 -48
-390 88 -44 47 -82 86 -86 86 -4 0 -36 -20 -71 -44 -35 -24 -82 -49 -104 -55
-103 -29 -254 0 -321 62 -21 18 -23 30 -23 106 0 47 12 163 26 256 34 232 46
466 41 880 -3 349 -3 350 -31 440 -60 196 -118 278 -321 455 -280 243 -405
309 -600 312 -95 2 -125 -6 -125 -33 0 -28 49 -54 149 -79 147 -37 204 -73
422 -267 132 -117 158 -151 234 -303 l38 -75 -6 -255 c-6 -257 -26 -434 -72
-636 -21 -91 -47 -126 -147 -194 -106 -73 -132 -115 -125 -210 2 -38 13 -82
25 -106 26 -52 85 -104 117 -104 26 0 30 8 39 89 6 57 83 186 111 186 33 0 40
-52 26 -186 l-13 -119 47 -52 c40 -45 46 -56 41 -82 -9 -42 -69 -100 -129
-127 -41 -17 -62 -20 -105 -15 -72 9 -220 65 -367 139 -96 49 -133 74 -191
131 -71 71 -174 216 -174 247 0 22 29 29 134 29 95 0 317 40 367 66 16 8 29
21 29 29 0 19 -24 19 -242 -1 -95 -9 -234 -14 -308 -12 -132 3 -136 4 -200 38
-153 83 -297 288 -395 563 l-28 78 11 447 c14 546 34 763 98 1093 74 385 165
565 346 685 237 158 685 260 1308 297 159 10 513 5 665 -8z m-2318 -3007 c39
-43 76 -112 139 -260 74 -176 107 -234 314 -558 278 -435 401 -653 539 -952
57 -124 95 -174 111 -148 11 17 5 61 -21 145 -25 82 -28 372 -4 382 9 3 62
-11 118 -32 56 -21 167 -59 247 -86 162 -55 194 -79 224 -167 27 -78 21 -131
-30 -255 l-46 -112 5 -100 c3 -62 19 -158 40 -252 20 -84 39 -178 43 -209 l7
-57 -51 5 c-77 7 -167 57 -246 135 -81 81 -119 129 -255 328 -56 83 -139 198
-184 256 -129 168 -442 682 -632 1038 -148 275 -252 511 -329 745 -51 153 -46
216 11 154z m3719 -164 c-16 -153 -102 -428 -198 -634 -103 -219 -386 -684
-731 -1198 -207 -310 -303 -427 -436 -534 -100 -80 -240 -148 -306 -148 -43 0
-39 65 17 285 20 79 32 156 35 225 5 98 3 111 -25 195 -17 50 -33 107 -35 128
-9 61 15 127 77 215 31 45 54 83 49 83 -4 1 -16 0 -26 -1 -9 -1 -32 7 -50 18
-28 18 -57 20 -262 25 -247 6 -299 14 -465 68 -219 72 -299 129 -586 414 -280
279 -384 427 -449 637 -55 178 -14 137 120 -117 129 -246 181 -309 337 -415
205 -138 525 -250 714 -250 43 0 75 -6 101 -20 94 -48 386 -59 628 -22 311 47
403 71 554 144 93 46 214 132 278 199 23 24 92 130 154 234 161 274 199 328
216 311 12 -12 -15 -164 -41 -226 -46 -116 -124 -223 -340 -469 -49 -56 -87
-104 -84 -106 3 -3 26 11 51 30 25 19 48 35 51 35 17 0 2 -62 -23 -103 -17
-25 -60 -99 -97 -163 -36 -65 -103 -176 -149 -248 -116 -185 -155 -266 -127
-266 17 0 64 62 219 290 456 669 585 896 720 1270 41 113 78 180 100 180 13 0
15 -9 9 -66z m-1842 -750 c60 -50 206 -218 206 -237 0 -20 -5 -20 -192 -13
-106 4 -210 9 -230 13 -34 5 -36 7 -26 27 6 11 49 67 94 123 72 87 93 108 113
112 2 1 17 -11 35 -25z"/>
<path d="M3179 4904 c-201 -36 -402 -141 -551 -287 -89 -88 -114 -140 -104
-212 9 -55 48 -105 83 -105 35 0 53 11 193 120 285 220 403 279 606 300 204
21 327 -17 482 -151 46 -39 85 -69 88 -66 14 14 -58 119 -131 193 -182 184
-409 255 -666 208z"/>
<path d="M986 4884 c-81 -18 -178 -65 -262 -127 -68 -50 -116 -105 -168 -192
-62 -101 -49 -100 69 7 114 103 180 135 305 149 162 18 317 -14 493 -102 110
-56 151 -85 281 -201 114 -101 161 -127 210 -114 62 15 86 128 45 212 -28 59
-169 189 -265 245 -91 53 -161 82 -265 110 -102 28 -346 35 -443 13z"/>
<path d="M3355 4684 c-108 -22 -138 -30 -191 -54 -123 -55 -284 -179 -439
-335 -125 -126 -175 -207 -175 -282 0 -84 21 -74 185 85 161 156 339 312 434
380 48 34 90 53 172 78 133 39 174 61 174 94 0 17 -7 26 -25 31 -27 8 -103 9
-135 3z"/>
<path d="M1015 4043 c-145 -20 -249 -71 -345 -168 -63 -63 -84 -78 -130 -91
-30 -9 -58 -18 -62 -20 -3 -2 1 -29 9 -60 15 -51 15 -60 0 -108 -10 -29 -17
-62 -17 -74 0 -23 14 -29 25 -12 8 13 120 45 222 64 45 9 221 22 390 31 508
25 574 36 630 96 37 41 39 72 5 110 -59 68 -311 199 -427 224 -64 13 -228 18
-300 8z"/>
<path d="M2642 2838 c-7 -7 -12 -24 -12 -38 0 -23 8 -30 63 -51 58 -22 64 -28
94 -84 18 -33 37 -82 44 -108 11 -46 12 -47 30 -31 28 25 25 102 -5 162 -26
51 -68 94 -131 136 -44 29 -65 32 -83 14z"/>
</g>
</svg>
